<?xml version="1.0" encoding="utf-8"?>
<svg version="1.1" xmlns:xlink="http://www.w3.org/1999/xlink" width="14px" height="14px" xmlns="http://www.w3.org/2000/svg">
  <g transform="matrix(1 0 0 1 -9 -26 )">
    <path d="M 0 1.02911931818182  L 0.0397727272727273 1.02961647727273  C 0.0397727272727273 0.482741477272727  0.487215909090909 0.0397727272727273  1.02961647727273 0  L 12.9708806818182 0  C 13.5172585227273 0.0397727272727273  13.9602272727273 0.487215909090909  14 1.02961647727273  L 14 12.9708806818182  C 13.9602272727273 13.5177556818182  13.5127840909091 13.9607244318182  12.9703835227273 14  L 1.02911931818182 14  C 0.482741477272727 13.9602272727273  0.0397727272727273 13.5127840909091  0 12.9703835227273  L 0 1.02911931818182  Z M 1.03409090909091 1.53125  L 1 1.53174715909091  L 1 12.4682528409091  C 1.03409074337118 12.4684185605544  1.0340906605113 12.4685842802719  1.0340906605113 12.4687500000001  C 1.0340906605113 12.7433233841489  1.25667636727156 12.9659090909092  1.53124975142039 12.9659090909092  C 1.53124983384602 12.9659090909092  1.53124991757437 12.9659090909091  1.53125 13  L 12.46875 13  C 12.7433233841488 12.9659090909091  12.9659090909091 12.7433233841488  13 12.46875  L 13 1.53125  C 12.9659090909091 1.25667661585117  12.7433233841488 1.03409090909091  12.46875 1  L 1.53125 1  C 1.25667661585117 1.03409090909091  1.03409090909091 1.25667661585117  1.03409090909091 1.53125  Z M 2.52555917739981 7.0029831956488  C 2.52555917739981 7.00198879030449  2.52556217888628 7.00099438722518  2.52556818181818 7  C 2.52556818181818 6.72556818181818  2.74680397727273 6.50284090909091  3.01924715909091 6.50284090909091  L 10.9807528409091 6.50284090909091  C 11.2531960227273 6.50284090909091  11.4744318181818 6.72357954545455  11.4744318181818 7  C 11.4744318181818 7.27443181818182  11.2531960227273 7.49715909090909  10.9807528409091 7.49715909090909  L 3.01924715909091 7.49715909090909  C 2.74651196510581 7.49688967882204  2.52555917739981 7.27571852269861  2.52555917739981 7.0029831956488  Z " fill-rule="nonzero" fill="#02a7f0" stroke="none" transform="matrix(1 0 0 1 9 26 )" />
  </g>
</svg>