<?xml version="1.0" standalone="no"?><!DOCTYPE svg PUBLIC "-//W3C//DTD SVG 1.1//EN" "http://www.w3.org/Graphics/SVG/1.1/DTD/svg11.dtd"><svg class="icon" width="32px" height="32.00px" viewBox="0 0 1024 1024" version="1.1" xmlns="http://www.w3.org/2000/svg"><path fill="#1087BC" d="M442.88 558.08A42.666667 42.666667 0 0 0 426.666667 554.666667H256a42.666667 42.666667 0 0 0 0 85.333333h67.84l-226.133333 225.706667a42.666667 42.666667 0 0 0 0 60.586666 42.666667 42.666667 0 0 0 60.586666 0L384 700.16V768a42.666667 42.666667 0 0 0 85.333333 0v-170.666667a42.666667 42.666667 0 0 0-3.413333-16.213333 42.666667 42.666667 0 0 0-23.04-23.04zM426.666667 213.333333a42.666667 42.666667 0 0 0-42.666667 42.666667v67.84l-225.706667-226.133333a42.666667 42.666667 0 0 0-60.586666 60.586666L323.84 384H256a42.666667 42.666667 0 0 0 0 85.333333h170.666667a42.666667 42.666667 0 0 0 16.213333-3.413333 42.666667 42.666667 0 0 0 23.04-23.04A42.666667 42.666667 0 0 0 469.333333 426.666667V256a42.666667 42.666667 0 0 0-42.666666-42.666667z m154.453333 252.586667A42.666667 42.666667 0 0 0 597.333333 469.333333h170.666667a42.666667 42.666667 0 0 0 0-85.333333h-67.84l226.133333-225.706667a42.666667 42.666667 0 1 0-60.586666-60.586666L640 323.84V256a42.666667 42.666667 0 0 0-85.333333 0v170.666667a42.666667 42.666667 0 0 0 3.413333 16.213333 42.666667 42.666667 0 0 0 23.04 23.04zM700.16 640H768a42.666667 42.666667 0 0 0 0-85.333333h-170.666667a42.666667 42.666667 0 0 0-16.213333 3.413333 42.666667 42.666667 0 0 0-23.04 23.04A42.666667 42.666667 0 0 0 554.666667 597.333333v170.666667a42.666667 42.666667 0 0 0 85.333333 0v-67.84l225.706667 226.133333a42.666667 42.666667 0 0 0 60.586666 0 42.666667 42.666667 0 0 0 0-60.586666z" /></svg>