<?xml version="1.0" encoding="utf-8"?>
<svg version="1.1" xmlns:xlink="http://www.w3.org/1999/xlink" width="14px" height="14px" xmlns="http://www.w3.org/2000/svg">
  <g transform="matrix(1 0 0 1 -31 -386 )">
    <path d="M 14 12.1861635220126  C 13.9916930379747 13.137106918239  13.207792721519 13.9177279874214  12.2472310126582 14  L 1.78738132911392 14  C 0.828481012658228 13.9177279874214  0.044580696202532 13.1387578616352  0 12.1858883647799  L 0 1.79044811320755  C 0.044580696202532 0.837578616352202  0.828757911392405 0.0583333333333344  1.78738132911392 0  L 12.2488924050633 0  C 13.207792721519 0.0583333333333344  13.9916930379747 0.837578616352202  14 1.79017295597484  L 14 12.1861635220126  Z M 12.2488924050633 1  L 1.78738132911392 1  C 1.26459651898734 0.923427672955975  0.915150316455696 1.2690251572327  1 1.79017295597484  L 1 12.1861635220126  C 0.915150316455696 12.7053852201258  1.26293512658228 13.0529088050314  1.78738132911392 13  L 12.2488924050633 13  C 12.7716772151899 13.0529088050314  13.1211234177215 12.707036163522  13 12.1861635220126  L 13 1.79017295597484  C 13.1211234177215 1.27095125786164  12.7733386075949 0.923427672955975  12.2488924050633 1  Z M 10.5044303797468 7.42099056603773  L 3.53045886075949 7.42099056603773  C 3.2690664556962 7.42099056603773  3.09434335443038 7.24709119496855  3.09434335443038 6.9876179245283  C 3.09434335443038 6.72786949685535  3.2690664556962 6.55424528301887  3.53045886075949 6.55424528301887  L 10.504707278481 6.55424528301887  C 10.7660996835443 6.55424528301887  10.9408227848101 6.72786949685535  10.9408227848101 6.9876179245283  C 10.9408227848101 7.24709119496855  10.7660996835443 7.42099056603773  10.504707278481 7.42099056603773  Z M 7.01744462025316 10.8857704402516  C 6.75605221518987 10.8857704402516  6.58105221518987 10.7124213836478  6.58105221518987 10.4523977987421  L 6.58105221518987 3.52201257861635  C 6.58105221518987 3.2622641509434  6.75605221518987 3.08863993710692  7.01744462025316 3.08863993710692  C 7.27856012658228 3.08863993710692  7.45356012658228 3.2622641509434  7.45356012658228 3.52201257861635  L 7.45356012658228 10.4526729559748  C 7.45356012658228 10.7121462264151  7.27856012658228 10.8860455974843  7.01744462025316 10.8860455974843  Z " fill-rule="nonzero" fill="#1296db" stroke="none" transform="matrix(1 0 0 1 31 386 )" />
  </g>
</svg>