<?xml version="1.0" encoding="utf-8"?>
<svg version="1.1" xmlns:xlink="http://www.w3.org/1999/xlink" width="16px" height="14px" xmlns="http://www.w3.org/2000/svg">
  <g transform="matrix(1 0 0 1 -31 -26 )">
    <path d="M 15.7743480574774 7.765625  C 15.9247826858258 7.85179924242424  16 7.99431818181818  16 8.19318181818182  C 16 8.39867424242424  15.9120099343622 8.61742424242424  15.7360298030867 8.84943181818182  L 12.8749334752528 12.7869318181818  C 12.6308320028384 13.125  12.2888061025368 13.4116950757576  11.8488557743481 13.6470170454545  C 11.4089054461593 13.8823390151515  11.0015965939329 14  10.626929217669 14  L 1.36242682277807 14  C 1.16941635621785 14  0.997693808763527 13.9569128787879  0.847259180415114 13.8707386363636  C 0.696824552066702 13.7845643939394  0.621607237892496 13.6420454545455  0.621607237892496 13.4431818181818  C 0.621607237892496 13.2376893939394  0.709597303530247 13.0189393939394  0.885577434805748 12.7869318181818  L 3.7466737626397 8.84943181818182  C 3.99077523505411 8.51136363636364  4.33280113535569 8.22466856060606  4.77275146354444 7.98934659090909  C 5.21270179173319 7.75402462121212  5.62001064395955 7.63636363636364  5.99467802022352 7.63636363636364  L 15.2591804151144 7.63636363636364  C 15.4521908816746 7.63636363636364  15.623913429129 7.67945075757576  15.7743480574774 7.765625  Z M 12.5172964342736 3.20170454545455  C 12.8919638105375 3.63920454545455  13.0792974986695 4.16287878787879  13.0792974986695 4.77272727272727  L 13.0792974986695 6.36363636363636  L 5.99467802022352 6.36363636363636  C 5.46106084796878 6.36363636363636  4.90189817278694 6.52107007575758  4.31718999467802 6.8359375  C 3.7324818165691 7.15080492424242  3.26698598545326 7.546875  2.92070250133049 8.02414772727273  L 0.0510910058541778 11.9616477272727  L 0.00851516764236296 12.0213068181818  C 0.00851516764236296 11.9947916666667  0.00709597303530247 11.9533617424242  0.00425758382118148 11.8970170454545  C 0.00141919460706049 11.8406723484848  0 11.7992424242424  0 11.7727272727273  L 0 2.22727272727273  C 0 1.61742424242424  0.187333688131985 1.09375  0.562001064395955 0.65625  C 0.936668440659926 0.21875  1.38513393649104 0  1.9073975518893 0  L 4.63225119744545 0  C 5.15451481284371 0  5.60298030867483 0.21875  5.9776476849388 0.65625  C 6.35231506120277 1.09375  6.53964874933475 1.61742424242424  6.53964874933475 2.22727272727273  L 6.53964874933475 2.54545454545455  L 11.1718999467802 2.54545454545455  C 11.6941635621785 2.54545454545455  12.1426290580096 2.76420454545455  12.5172964342736 3.20170454545455  Z " fill-rule="nonzero" fill="#ffff00" stroke="none" transform="matrix(1 0 0 1 31 26 )" />
  </g>
</svg>