<?xml version="1.0" encoding="utf-8"?>
<svg version="1.1" xmlns:xlink="http://www.w3.org/1999/xlink" width="14px" height="14px" xmlns="http://www.w3.org/2000/svg">
  <g transform="matrix(1 0 0 1 -261 -26 )">
    <path d="M 1.77025462962963 0.341796875  C 1.97280092592593 0.569661458333333  2.07407407407407 0.844618055555555  2.07407407407407 1.16666666666667  C 2.07407407407407 1.60416666666667  1.90123456790123 1.93836805555555  1.55555555555556 2.16927083333333  L 1.55555555555556 13.7083333333333  C 1.55555555555556 13.7873263888889  1.52989969135802 13.8556857638889  1.47858796296296 13.9134114583333  C 1.4272762345679 13.9711371527778  1.36651234567901 14  1.2962962962963 14  L 0.777777777777778 14  C 0.707561728395062 14  0.646797839506173 13.9711371527778  0.595486111111111 13.9134114583333  C 0.54417438271605 13.8556857638889  0.518518518518518 13.7873263888889  0.518518518518518 13.7083333333333  L 0.518518518518518 2.16927083333333  C 0.17283950617284 1.93836805555555  0 1.60416666666667  0 1.16666666666667  C 0 0.844618055555555  0.101273148148148 0.569661458333333  0.303819444444444 0.341796875  C 0.506365740740741 0.113932291666667  0.750771604938272 0  1.03703703703704 0  C 1.3233024691358 0  1.56770833333333 0.113932291666667  1.77025462962963 0.341796875  Z M 13.8460648148148 1.33984375  C 13.9486882716049 1.45529513888889  14 1.59201388888889  14 1.75  L 14 8.70442708333333  C 14 8.85633680555555  13.9662422839506 8.97330729166667  13.8987268518519 9.05533854166667  C 13.8312114197531 9.13736979166667  13.724537037037 9.22092013888889  13.5787037037037 9.30598958333333  C 12.4174382716049 10.0108506944444  11.4209104938272 10.36328125  10.5891203703704 10.36328125  C 10.2596450617284 10.36328125  9.92611882716049 10.2964409722222  9.58854166666667 10.1627604166667  C 9.25096450617284 10.0290798611111  8.9579475308642 9.88324652777778  8.70949074074074 9.72526041666667  C 8.46103395061728 9.56727430555555  8.14911265432099 9.42144097222222  7.77372685185185 9.28776041666667  C 7.39834104938272 9.15407986111111  7.01350308641975 9.08723958333333  6.61921296296296 9.08723958333333  C 5.58217592592593 9.08723958333333  4.32908950617284 9.53081597222222  2.8599537037037 10.41796875  C 2.76813271604938 10.47265625  2.67901234567901 10.5  2.59259259259259 10.5  C 2.45216049382716 10.5  2.33063271604938 10.4422743055556  2.22800925925926 10.3268229166667  C 2.12538580246914 10.2113715277778  2.07407407407407 10.0746527777778  2.07407407407407 9.91666666666667  L 2.07407407407407 3.15364583333333  C 2.07407407407407 2.95920138888889  2.15779320987654 2.79210069444444  2.32523148148148 2.65234375  C 2.43865740740741 2.56727430555555  2.65200617283951 2.43663194444444  2.96527777777778 2.26041666666667  C 4.23996913580247 1.53125  5.37692901234568 1.16666666666667  6.37615740740741 1.16666666666667  C 6.95408950617284 1.16666666666667  7.49421296296296 1.25477430555555  7.99652777777778 1.43098958333333  C 8.49884259259259 1.60720486111111  9.09027777777778 1.87456597222222  9.77083333333333 2.23307291666667  C 9.97608024691358 2.34852430555555  10.2137345679012 2.40625  10.4837962962963 2.40625  C 10.775462962963 2.40625  11.0927854938272 2.34244791666667  11.4357638888889 2.21484375  C 11.7787422839506 2.08723958333333  12.0758101851852 1.94444444444444  12.3269675925926 1.78645833333333  C 12.578125 1.62847222222222  12.8157793209877 1.48567708333333  13.0399305555556 1.35807291666667  C 13.2640817901235 1.23046875  13.4112654320988 1.16666666666667  13.4814814814815 1.16666666666667  C 13.6219135802469 1.16666666666667  13.7434413580247 1.22439236111111  13.8460648148148 1.33984375  Z " fill-rule="nonzero" fill="#02a7f0" stroke="none" transform="matrix(1 0 0 1 261 26 )" />
  </g>
</svg>