<?xml version="1.0" encoding="utf-8"?>
<svg version="1.1" xmlns:xlink="http://www.w3.org/1999/xlink" width="14px" height="14px" xmlns="http://www.w3.org/2000/svg">
  <defs>
    <linearGradient gradientUnits="userSpaceOnUse" x1="7" y1="0" x2="7" y2="14" id="LinearGradient1">
      <stop id="Stop2" stop-color="#ffffff" offset="0" />
      <stop id="Stop3" stop-color="#98cef9" offset="1" />
    </linearGradient>
  </defs>
  <g transform="matrix(1 0 0 1 -81 -86 )">
    <path d="M 13.6354166666667 4  L 9.33333333333333 4  L 9.33333333333333 1.97684210526315  L 9.33333333333333 0.312499999999997  C 9.46701388888889 0.385416666666669  9.57638888888889 0.458333333333333  9.66145833333333 0.531249999999997  L 13.3802083333333 3.71875  C 13.4652777777778 3.79166666666666  13.5503472222222 3.88541666666667  13.6354166666667 4  Z M 8.16666666666667 0  L 8.16666666666667 4.25  C 8.16666666666667 4.45833333333333  8.25173611111111 4.63541666666667  8.421875 4.78125  C 8.59201388888889 4.92708333333333  8.79861111111111 5  9.04166666666667 5  L 14 5  L 14 13.25  C 14 13.4583333333333  13.9149305555556 13.6354166666667  13.7447916666667 13.78125  C 13.5746527777778 13.9270833333333  13.3680555555556 14  13.125 14  L 0.875 14  C 0.631944444444444 14  0.425347222222222 13.9270833333333  0.255208333333333 13.78125  C 0.0850694444444445 13.6354166666667  0 13.4583333333333  0 13.25  L 0 0.749999999999997  C 0 0.541666666666663  0.0850694444444445 0.364583333333336  0.255208333333333 0.21875  C 0.425347222222222 0.072916666666664  0.631944444444444 0  0.875 0  L 8.16666666666667 0  Z " fill-rule="nonzero" fill="url(#LinearGradient1)" stroke="none" transform="matrix(1 0 0 1 81 86 )" />
  </g>
</svg>